<?xml version="1.0" encoding="UTF-8" standalone="no"?>
<svg
   height="256"
   viewBox="0 0 24 24"
   width="256"
   version="1.1"
   id="svg33"
   sodipodi:docname="logo-golang-bubbles.svg"
   inkscape:version="1.2.2 (b0a8486541, 2022-12-01)"
   xmlns:inkscape="http://www.inkscape.org/namespaces/inkscape"
   xmlns:sodipodi="http://sodipodi.sourceforge.net/DTD/sodipodi-0.dtd"
   xmlns="http://www.w3.org/2000/svg"
   xmlns:svg="http://www.w3.org/2000/svg">
  <defs
     id="defs37" />
  <sodipodi:namedview
     id="namedview35"
     pagecolor="#ffffff"
     bordercolor="#000000"
     borderopacity="0.25"
     inkscape:showpageshadow="2"
     inkscape:pageopacity="0.0"
     inkscape:pagecheckerboard="0"
     inkscape:deskcolor="#d1d1d1"
     showgrid="false"
     inkscape:zoom="2.0058594"
     inkscape:cx="255.75073"
     inkscape:cy="256.49854"
     inkscape:window-width="3440"
     inkscape:window-height="1371"
     inkscape:window-x="0"
     inkscape:window-y="0"
     inkscape:window-maximized="1"
     inkscape:current-layer="svg33" />
  <g
     id="Bubbles"
     transform="scale(0.5)">
    <path
       d="M 25,35 C 25,46.53 10.24,51.4 3.35,42.15 A 12,12 0 1 1 25,35 Z"
       fill="#b2e5fb"
       id="path2" />
    <path
       d="M 22.5,32.5 A 12,12 0 0 1 3.35,42.15 12,12 0 0 1 20.15,25.35 12,12 0 0 1 22.5,32.5 Z"
       fill="#9fdbf3"
       id="path4" />
    <path
       d="M 13,48 A 13,13 0 1 1 26,35 13,13 0 0 1 13,48 Z M 13,24 A 11,11 0 1 0 24,35 11,11 0 0 0 13,24 Z"
       fill="#231f20"
       id="path6" />
    <path
       d="m 13,44 a 1,1 0 0 1 0,-2 7,7 0 0 0 7,-6.12 1.0071743,1.0071743 0 0 1 2,0.24 9,9 0 0 1 -9,7.88 z"
       fill="#231f20"
       id="path8" />
    <path
       d="M 47,25 A 8,8 0 1 1 32.44,20.44 8,8 0 0 1 47,25 Z"
       fill="#b2e5fb"
       id="path10" />
    <path
       d="M 45,27 A 7.87,7.87 0 0 1 43.56,31.56 7.87,7.87 0 0 1 39,33 8,8 0 0 1 32.44,20.44 8,8 0 0 1 45,27 Z"
       fill="#9fdbf3"
       id="path12" />
    <path
       d="m 39,34 a 9,9 0 1 1 9,-9 9,9 0 0 1 -9,9 z m 0,-16 a 7,7 0 1 0 7,7 7,7 0 0 0 -7,-7 z"
       fill="#231f20"
       id="path14" />
    <path
       d="m 44,26 a 1,1 0 0 1 -1,-1 4,4 0 0 0 -4,-4 1,1 0 0 1 0,-2 c 5.52,0 7.41,7 5,7 z"
       fill="#231f20"
       id="path16" />
    <path
       d="M 30,7 A 6,6 0 1 1 24,1 6,6 0 0 1 30,7 Z"
       fill="#b2e5fb"
       id="path18" />
    <path
       d="M 20.88,12.12 C 17.6,6.8 23.81,0.61 29.12,3.88 c 3.26,5.3 -2.9,11.53 -8.24,8.24 z"
       fill="#9fdbf3"
       id="path20" />
    <path
       d="m 24,14 a 7,7 0 1 1 7,-7 7,7 0 0 1 -7,7 z M 24,2 a 5,5 0 1 0 5,5 5,5 0 0 0 -5,-5 z"
       fill="#231f20"
       id="path22" />
    <path
       d="M 21,8 C 18.9,8 20.19,3 24,3 a 1,1 0 0 1 0,2 2,2 0 0 0 -2,2 1,1 0 0 1 -1,1 z"
       fill="#231f20"
       id="path24" />
    <path
       d="M 12,13 A 4,4 0 1 1 4.72,10.72 4,4 0 0 1 12,13 Z"
       fill="#b2e5fb"
       id="path26" />
    <path
       d="m 10.28,16.28 a 4,4 0 0 1 -5.56,-5.56 4,4 0 0 1 5.56,5.56 z"
       fill="#9fdbf3"
       id="path28" />
    <path
       d="m 8,18 a 5,5 0 1 1 5,-5 5,5 0 0 1 -5,5 z m 0,-8 a 3,3 0 1 0 3,3 3,3 0 0 0 -3,-3 z"
       fill="#231f20"
       id="path30" />
  </g>
</svg>
