<?xml version="1.0" encoding="UTF-8" standalone="no"?>
<svg
   id="Capa_1"
   enable-background="new 0 0 512 512"
   height="256"
   viewBox="0 0 256 256"
   width="256"
   version="1.1"
   sodipodi:docname="logo-golang-lipgloss.svg"
   inkscape:version="1.2.2 (b0a8486541, 2022-12-01)"
   xmlns:inkscape="http://www.inkscape.org/namespaces/inkscape"
   xmlns:sodipodi="http://sodipodi.sourceforge.net/DTD/sodipodi-0.dtd"
   xmlns="http://www.w3.org/2000/svg"
   xmlns:svg="http://www.w3.org/2000/svg">
  <defs
     id="defs43" />
  <sodipodi:namedview
     id="namedview41"
     pagecolor="#ffffff"
     bordercolor="#000000"
     borderopacity="0.25"
     inkscape:showpageshadow="2"
     inkscape:pageopacity="0.0"
     inkscape:pagecheckerboard="0"
     inkscape:deskcolor="#d1d1d1"
     showgrid="false"
     inkscape:zoom="2.0058594"
     inkscape:cx="255.75073"
     inkscape:cy="256.49854"
     inkscape:window-width="3440"
     inkscape:window-height="1371"
     inkscape:window-x="0"
     inkscape:window-y="0"
     inkscape:window-maximized="1"
     inkscape:current-layer="Capa_1" />
  <g
     id="g38"
     transform="matrix(0.5,0,0,0.5,0.1005,0)">
    <path
       d="m 179.798,109.71 c 3.52,10.329 7.04,20.658 10.559,30.987 -3.52,9.671 -7.04,19.342 -10.559,29.013 -9.981,3.146 -19.963,6.293 -29.944,9.439 -6.409,-2.95 -12.817,-5.899 -19.226,-8.849 v -45.59 c 0,-8.28 6.72,-15 15,-15 z"
       fill="#334973"
       id="path2" />
    <path
       d="m 228.968,124.71 v 45.59 c -9.123,4.368 -18.246,8.736 -27.369,13.104 -7.267,-4.565 -14.534,-9.13 -21.801,-13.694 v -60 h 34.17 c 8.29,0 15,6.72 15,15 z"
       fill="#1f3259"
       id="path4" />
    <path
       d="m 179.798,395.84 c 4.714,19.36 9.427,38.72 14.141,58.08 -4.714,19.36 -9.427,38.72 -14.141,58.08 h -15.14 c -24.73,0 -44.86,-20.12 -44.86,-44.86 v -71.3 c 10,-5.393 20,-10.787 30,-16.18 10,5.393 20,10.787 30,16.18 z"
       fill="#9580ff"
       id="path6" />
    <path
       d="m 239.798,395.84 v 71.3 c 0,24.74 -20.12,44.86 -44.86,44.86 h -15.14 V 395.84 l 30,-13.116 c 10,4.371 20,8.744 30,13.116 z"
       fill="#8066ff"
       id="path8" />
    <path
       d="m 179.798,169.71 c 6.756,21.302 13.512,42.605 20.269,63.907 -6.756,17.414 -13.512,34.829 -20.269,52.243 -10,4.203 -20,8.405 -30,12.608 -10,-4.203 -20,-8.405 -30,-12.608 V 184.71 c 0,-6.84 4.58,-12.61 10.83,-14.41 1.32,-0.38 2.72,-0.59 4.17,-0.59 z"
       fill="#9580ff"
       id="path10" />
    <path
       d="m 239.798,184.71 v 101.15 c -10,4.203 -20,8.405 -30,12.608 -10,-4.203 -20,-8.405 -30,-12.608 V 169.71 h 45 c 1.45,0 2.85,0.21 4.17,0.59 6.26,1.8 10.83,7.57 10.83,14.41 z"
       fill="#8066ff"
       id="path12" />
    <path
       d="m 179.798,285.86 c 4.714,18.33 9.427,36.659 14.141,54.989 -4.714,18.331 -9.427,36.661 -14.141,54.991 h -60 V 285.86 Z"
       fill="#ffe500"
       id="path14" />
    <path
       d="m 179.798,285.86 h 60 v 109.98 h -60 z"
       fill="#ffcd18"
       id="path16" />
    <path
       d="m 339.798,135.5 c 2.501,27.282 5.002,54.564 7.503,81.846 -2.501,31.648 -5.002,63.296 -7.503,94.944 -2.284,1.943 -4.567,3.886 -6.851,5.829 -2.716,-1.943 -5.433,-3.886 -8.149,-5.829 V 132.92 c 1.662,-1.587 3.324,-3.174 4.986,-4.761 3.338,2.447 6.676,4.894 10.014,7.341 z"
       fill="#334973"
       id="path18" />
    <path
       d="m 354.798,132.92 v 179.37 c -2.499,1.943 -4.998,3.886 -7.497,5.83 -2.501,-1.943 -5.002,-3.886 -7.503,-5.83 V 135.5 c 2.529,-2.103 5.059,-4.206 7.588,-6.309 2.47,1.243 4.941,2.486 7.412,3.729 z"
       fill="#1f3259"
       id="path20" />
    <path
       d="m 339.798,312.29 c 5,33.372 10.001,66.743 15.001,100.115 -5,33.198 -10.001,66.397 -15.001,99.595 h -15.14 c -24.73,0 -44.86,-20.13 -44.86,-44.86 V 327.29 c 0,-8.28 6.72,-15 15,-15 z"
       fill="#9580ff"
       id="path22" />
    <path
       d="m 399.798,327.29 v 139.85 c 0,24.73 -20.12,44.86 -44.86,44.86 h -15.14 V 312.29 h 45 c 8.29,0 15,6.72 15,15 z"
       fill="#8066ff"
       id="path24" />
    <path
       d="m 339.798,0 c 3.068,23.177 6.137,46.355 9.205,69.532 -3.068,21.989 -6.137,43.979 -9.205,65.968 -5.26,0 -10.31,-0.91 -15,-2.58 -17.46,-6.18 -30,-22.87 -30,-42.42 V 45 c 0,-24.81 20.19,-45 45,-45 z"
       fill="#ff66cc"
       id="path26" />
    <path
       d="m 384.798,45 v 45.5 c 0,19.55 -12.54,36.24 -30,42.42 -4.69,1.67 -9.74,2.58 -15,2.58 V 0 c 24.81,0 45,20.19 45,45 z"
       fill="#ff33bb"
       id="path28" />
    <path
       d="m 460.798,215.94 h -9 v -15.266 c 0,-8.284 -6.716,-15 -15,-15 -8.284,0 -15,6.716 -15,15 v 15.266 h -9 c -8.284,0 -15,6.716 -15,15 0,8.284 6.716,15 15,15 h 9 v 15.266 c 0,8.284 6.716,15 15,15 8.284,0 15,-6.716 15,-15 V 245.94 h 9 c 8.284,0 15,-6.716 15,-15 0,-8.284 -6.715,-15 -15,-15 z"
       fill="#ffcd18"
       id="path30" />
    <path
       d="m 99.377,30.266 h -9 V 15 c 0,-8.284 -6.716,-15 -15,-15 -8.284,0 -15,6.716 -15,15 v 15.266 h -9 c -8.284,0 -15,6.716 -15,15 0,8.284 6.716,15 15,15 h 9 v 15.266 c 0,8.284 6.716,15 15,15 8.284,0 15,-6.716 15,-15 V 60.266 h 9 c 8.284,0 15,-6.716 15,-15 0,-8.284 -6.716,-15 -15,-15 z"
       fill="#ffe500"
       id="path32" />
    <circle
       cx="51.201"
       cy="171.422"
       fill="#ffcd18"
       r="15"
       id="circle34" />
    <circle
       cx="460.79901"
       cy="120.5"
       fill="#ff9933"
       r="15"
       id="circle36" />
  </g>
</svg>
